# xmcd
#
# Track frame offsets: 
#        150
#        16262
#        23957
#        31432
#        43060
#        56787
#        69302
#        77922
#        88665
#        102512
#        115260
#        128605
#        139425
#        146757
#        156377
#        173165
#        187562
#        199012
#        209240
#        218772
#        233622
#
# Disc length: 3246 seconds
#
# Revision: 2
# Processed by: cddbd v1.5.2PL0 Copyright (c) Steve Scherf et al.
# Submitted via: ExactAudioCopy v1.1
#
DISCID=310cac15
DTITLE=群星 - 半個月亮爬上來[中國民歌大全（二）][BCD-90017]
DYEAR=1990
DGENRE=Folk
TTITLE0=任桂珍 - 誰不說俺家鄉好
TTITLE1=鞠秀芳 - 銀紐系
TTITLE2=勒小才 - 楊柳青
TTITLE3=任桂珍 - 在那遙遠的地方
TTITLE4=才旦卓瑪  - 美麗的拉薩河
TTITLE5=中央樂團合唱隊 - 漁歌
TTITLE6=李存蓮 - 探花
TTITLE7=勒小才 - 誇揚州
TTITLE8=才旦卓瑪 - 珞巴展翅飛翔
TTITLE9=勒小才 - 拔銀蘆柴花
TTITLE10=任桂珍 - 康定情歌
TTITLE11=遠征 - 紫竹調
TTITLE12=勒小才 - 搬運號子
TTITLE13=任桂珍 - 紡棉花
TTITLE14=朱曉琳 - 月兒彎彎照九州
TTITLE15=鞠秀芳 - 小九連環
TTITLE16=任桂珍  - 半個月亮爬上來
TTITLE17=李谷一 - 鳳陽花鼓
TTITLE18=任桂珍 - 花香鼓舞
TTITLE19=陳麗卿 - 十大姐
TTITLE20=李存蓮 - 槐花幾時開
EXTD=¤¤°ê¥Áºq¤j¥þ(¤G¡^
EXTT0=
EXTT1=
EXTT2=
EXTT3=
EXTT4=
EXTT5=
EXTT6=
EXTT7=
EXTT8=
EXTT9=
EXTT10=
EXTT11=
EXTT12=
EXTT13=
EXTT14=
EXTT15=
EXTT16=
EXTT17=
EXTT18=
EXTT19=
EXTT20=
PLAYORDER=
